<svg xmlns="http://www.w3.org/2000/svg" viewBox="0 0 300 200">
  <!-- 蓝色背景 -->
  <rect width="300" height="200" fill="#00008B"/>
  
  <!-- 联合旗图案（左上角） -->
  <g>
    <!-- 白色对角线 -->
    <path d="M0,0 L150,75 M150,0 L0,75" stroke="#fff" stroke-width="15"/>
    
    <!-- 红色对角线 -->
    <path d="M0,0 L150,75 M150,0 L0,75" stroke="#FF0000" stroke-width="10"/>
    
    <!-- 白色十字 -->
    <path d="M75,0 V75 M0,37.5 H150" stroke="#fff" stroke-width="15"/>
    
    <!-- 红色十字 -->
    <path d="M75,0 V75 M0,37.5 H150" stroke="#FF0000" stroke-width="10"/>
  </g>
  
  <!-- 联邦星 -->
  <path fill="#fff" d="M75,90 l1.5,4.5h4.7l-3.8,2.8 1.4,4.5-3.8-2.8-3.8,2.8 1.4-4.5-3.8-2.8h4.7z"/>
  
  <!-- 南十字星座 -->
  <path fill="#fff" d="M190,40 l4.5,13.5h14.1l-11.4,8.4 4.2,13.5-11.4-8.4-11.4,8.4 4.2-13.5-11.4-8.4h14.1z"/>
  <path fill="#fff" d="M240,90 l1.5,4.5h4.7l-3.8,2.8 1.4,4.5-3.8-2.8-3.8,2.8 1.4-4.5-3.8-2.8h4.7z"/>
  <path fill="#fff" d="M220,120 l1.5,4.5h4.7l-3.8,2.8 1.4,4.5-3.8-2.8-3.8,2.8 1.4-4.5-3.8-2.8h4.7z"/>
  <path fill="#fff" d="M190,150 l1.5,4.5h4.7l-3.8,2.8 1.4,4.5-3.8-2.8-3.8,2.8 1.4-4.5-3.8-2.8h4.7z"/>
  <path fill="#fff" d="M160,130 l1.5,4.5h4.7l-3.8,2.8 1.4,4.5-3.8-2.8-3.8,2.8 1.4-4.5-3.8-2.8h4.7z"/>
</svg> 