<svg xmlns="http://www.w3.org/2000/svg" viewBox="0 0 300 200">
  <!-- 白色背景 -->
  <rect width="300" height="200" fill="#fff"/>
  
  <!-- 左侧红色条纹 -->
  <rect x="0" y="0" width="75" height="200" fill="#FF0000"/>
  
  <!-- 右侧红色条纹 -->
  <rect x="225" y="0" width="75" height="200" fill="#FF0000"/>
  
  <!-- 枫叶图案 -->
  <path fill="#FF0000" d="M150,30 l-2,5 -5,0.5 3.5,3.5 -1,5 4.5-2.5 4.5,2.5 -1-5 3.5-3.5 -5-0.5z M150,50 l20,25 c0,0 5,7 -3,8 -8,1 -5,8 -5,8 l5,5 -5,2 3,3 -2,3 3,2 -2,3 5,5 -2,3 -14,-3 c0,0 -5,-5 -10,2 -5,7 -10,0 -10,0 l-14,3 -2,-3 5,-5 -2,-3 3,-2 -2,-3 3,-3 -5,-2 5,-5 c0,0 3,-7 -5,-8 -8,-1 -3,-8 -3,-8 l20,-25 M120,80 h60 M120,85 h60 M120,90 h60"/>
</svg> 