<svg xmlns="http://www.w3.org/2000/svg" viewBox="0 0 300 200">
  <!-- 红色背景 -->
  <rect width="300" height="200" fill="#DE2910"/>
  
  <!-- 大星星 -->
  <path fill="#FFDE00" d="M60,20 l8.1,25h26.3l-21.3,15.4 8.2,25-21.3-15.5-21.3,15.5 8.2-25-21.3-15.4h26.3z"/>
  
  <!-- 小星星 -->
  <path fill="#FFDE00" d="M120,15 l2.4,7.4h7.8l-6.3,4.6 2.4,7.4-6.3-4.6-6.3,4.6 2.4-7.4-6.3-4.6h7.8z" transform="rotate(23, 120, 20)"/>
  <path fill="#FFDE00" d="M120,35 l2.4,7.4h7.8l-6.3,4.6 2.4,7.4-6.3-4.6-6.3,4.6 2.4-7.4-6.3-4.6h7.8z" transform="rotate(40, 120, 40)"/>
  <path fill="#FFDE00" d="M120,55 l2.4,7.4h7.8l-6.3,4.6 2.4,7.4-6.3-4.6-6.3,4.6 2.4-7.4-6.3-4.6h7.8z" transform="rotate(70, 120, 60)"/>
  <path fill="#FFDE00" d="M120,75 l2.4,7.4h7.8l-6.3,4.6 2.4,7.4-6.3-4.6-6.3,4.6 2.4-7.4-6.3-4.6h7.8z" transform="rotate(100, 120, 80)"/>
</svg> 