<svg xmlns="http://www.w3.org/2000/svg" viewBox="0 0 300 200">
  <!-- 蓝色背景 -->
  <rect width="300" height="200" fill="#039"/>
  
  <!-- 12颗星星围成的圆圈 -->
  <g fill="#FC0">
    <!-- 每颗星星 -->
    <path d="M150,30 l3.5,10.8h11.3l-9.2,6.7 3.5,10.8-9.1-6.6-9.1,6.6 3.5-10.8-9.2-6.7h11.3z"/>
    <path d="M150,30 l3.5,10.8h11.3l-9.2,6.7 3.5,10.8-9.1-6.6-9.1,6.6 3.5-10.8-9.2-6.7h11.3z" transform="rotate(30 150 100)"/>
    <path d="M150,30 l3.5,10.8h11.3l-9.2,6.7 3.5,10.8-9.1-6.6-9.1,6.6 3.5-10.8-9.2-6.7h11.3z" transform="rotate(60 150 100)"/>
    <path d="M150,30 l3.5,10.8h11.3l-9.2,6.7 3.5,10.8-9.1-6.6-9.1,6.6 3.5-10.8-9.2-6.7h11.3z" transform="rotate(90 150 100)"/>
    <path d="M150,30 l3.5,10.8h11.3l-9.2,6.7 3.5,10.8-9.1-6.6-9.1,6.6 3.5-10.8-9.2-6.7h11.3z" transform="rotate(120 150 100)"/>
    <path d="M150,30 l3.5,10.8h11.3l-9.2,6.7 3.5,10.8-9.1-6.6-9.1,6.6 3.5-10.8-9.2-6.7h11.3z" transform="rotate(150 150 100)"/>
    <path d="M150,30 l3.5,10.8h11.3l-9.2,6.7 3.5,10.8-9.1-6.6-9.1,6.6 3.5-10.8-9.2-6.7h11.3z" transform="rotate(180 150 100)"/>
    <path d="M150,30 l3.5,10.8h11.3l-9.2,6.7 3.5,10.8-9.1-6.6-9.1,6.6 3.5-10.8-9.2-6.7h11.3z" transform="rotate(210 150 100)"/>
    <path d="M150,30 l3.5,10.8h11.3l-9.2,6.7 3.5,10.8-9.1-6.6-9.1,6.6 3.5-10.8-9.2-6.7h11.3z" transform="rotate(240 150 100)"/>
    <path d="M150,30 l3.5,10.8h11.3l-9.2,6.7 3.5,10.8-9.1-6.6-9.1,6.6 3.5-10.8-9.2-6.7h11.3z" transform="rotate(270 150 100)"/>
    <path d="M150,30 l3.5,10.8h11.3l-9.2,6.7 3.5,10.8-9.1-6.6-9.1,6.6 3.5-10.8-9.2-6.7h11.3z" transform="rotate(300 150 100)"/>
    <path d="M150,30 l3.5,10.8h11.3l-9.2,6.7 3.5,10.8-9.1-6.6-9.1,6.6 3.5-10.8-9.2-6.7h11.3z" transform="rotate(330 150 100)"/>
  </g>
</svg> 